<?xml version="1.0" encoding="UTF-8"?>
<svg id="Layer_1" data-name="Layer 1" xmlns="http://www.w3.org/2000/svg" viewBox="0 0 3020.3 1080">
  <defs>
    <style>
      .cls-1 {
        fill: #096977;
      }

      .cls-2 {
        fill: #606060;
      }

      .cls-3 {
        fill: none;
      }

      .cls-4 {
        fill: #0ca5c5;
      }

      .cls-5 {
        fill: #68b378;
      }
    </style>
  </defs>
  <g>
    <line class="cls-3" x1="263" y1="499.74" x2="243.6" y2="480.34"/>
    <path class="cls-2" d="M665.89,206.01c-10.91,6.96-21.92,14.14-32.98,21.58,9.82-7.97,20.81-15.37,32.98-21.58Z"/>
    <path class="cls-5" d="M900.2,415.5c-13.99-32.4-51.51-97.46-131.62-113.59-107.89-21.71-169.8,35.74-169.8,35.74,0,0,12.53-79.14,93.08-107.87,46.8-18.6,83.21-8.83,100.39-1.63,6.6,2.78,14.25.71,18.45-5.1,1.99-2.76,2.93-5.89,2.93-8.98,0-6.06-3.58-11.91-9.79-14.34-24.17-9.43-70.48-21.04-122.7-.58-5.27,2.06-10.35,4.37-15.24,6.86-12.17,6.21-23.16,13.61-32.98,21.58-.02,0-.02.02-.04.02-42.03,34.03-62.83,77.91-64.27,81.02-2.41-5.17-38.58-80.52-112.53-109.48-51.86-20.31-97.88-9.02-122.19.39-9.34,3.62-13.29,13.9-8.08,22.46,4.01,6.6,12.17,9.09,19.16,6.15,17.16-7.2,53.59-16.97,100.39,1.63,80.55,28.73,93.08,107.87,93.08,107.87,0,0-61.93-57.45-169.8-35.74-80.12,16.13-117.64,81.19-131.62,113.59-4.05,9.39,1.69,20.08,11.74,21.88h.24c7.13,0,15.27-5.36,18.23-11.84,16.52-36.17,65.55-96.18,137.81-96.18,82.97,0,114.88,41.48,114.88,41.48,0,0-68.61,9.26-125.1,65.76-42.28,42.28-39.86,118.18-35.98,153.67,1.11,9.99,9.99,17.66,19.97,16.43,9.49-1.18,16.31-9.54,15.62-18.98-2.34-31.67-2.66-102.22,35.38-140.27,50.06-50.06,121.39-42.13,121.39-42.13,0,59.93-1.29,120.15-8.1,179.74-4.03,35.27-8.97,73.12-23.83,105.75-15.26,33.5-32.94,65.8-50.58,98.09-8.5,15.56-16.85,31.16-24.83,46.97-4.23,8.38-8.44,16.77-12.63,25.16-2.1,4.2-4.19,8.4-6.29,12.6-1.26,2.52-3.92,11.33-6.28,12.6,12.12-6.52,24.23-13.04,36.35-19.57,2.97-1.6,6.01-3.25,8.28-5.75,1.54-1.7,2.67-3.73,3.78-5.73,24.21-43.73,48.39-87.17,69.64-132.43,4.75-10.12,9.4-20.29,13.93-30.51,4-9.02,9.38-18.15,12.32-27.56,1.97-6.66,5.44-15.06,5.75-22.17,1.78,8.11,14.92,64.87,44.78,110.69l.17.26c8.57-6.69,17.12-13.52,25.65-20.46-3.3-5.81-6.02-10.89-7.95-14.91-14.68-30.64-45.32-68.31-45.32-312.77,0,0,71.34-7.93,121.41,42.13,38.04,38.04,37.72,108.6,35.38,140.27-.67,9.17,5.78,17.34,14.85,18.87.99.17,1.97.24,2.94.24,8.91,0,16.67-6.65,17.7-15.81,3.94-35.17,6.69-111.84-35.89-154.42-56.49-56.49-125.12-65.76-125.12-65.76,0,0,31.93-41.48,114.9-41.48,74.04,0,123.68,63,138.96,98.79,2.89,6.75,10.11,10.54,17.33,9.22,7.84-1.4,13.05-8.21,13.05-15.58,0-2.1-.41-4.24-1.31-6.3Z"/>
    <path class="cls-4" d="M592.14,769.99c-30.83,23.38-61.61,45.21-92.21,65.36,23.02-37.61,53.55-70.39,68.53-109.59,5.94,15.53,14.31,30.04,23.68,44.23Z"/>
    <path class="cls-4" d="M666.45,929.19c0,43.58-24.41,66.41-48.86,78.39-24.45,11.96-48.94,13.03-49.13,13.05-.3-.02-65.87-2.91-89.55-51.86-5.12-10.56-8.27-23.25-8.4-38.53-.02-.36-.02-.69-.02-1.05,0-11.68,1.29-22.67,3.6-33.09,46.24-28.14,93.06-60.13,139.52-95.34,5.31,7.43,10.59,14.91,15.67,22.54,6.96,10.48,13.5,21.26,19.11,32.59,10.78,21.77,18.06,45.58,18.06,73.31Z"/>
    <path class="cls-1" d="M1071.73,343.89c74.74-131.01,95.74-241.98,44.87-299.34-23.64-26.64-60.62-39.26-107.38-39.26-55.31,0-124.31,17.66-201.11,50.66h0C735.9,20.14,654.52,0,568.46,0,270.22,0,28.46,241.76,28.46,540c0,66.62,12.06,130.41,34.14,189.32,0,0,0,0,0,0C-3.81,852.34-20.63,955.72,27.88,1010.4c23.64,26.64,60.62,39.26,107.38,39.26s105.71-13.16,170.06-38.01h0c77.84,43.53,167.59,68.34,263.11,68.34,0,0,.01,0,.02,0,0,0,.02,0,.03,0,298.23-.01,539.98-241.77,539.98-540,0-69.17-13.01-135.32-36.73-196.1,0,0,0,0,0,0ZM252.15,1001.25c-44.31,13.91-83.64,20.96-116.89,20.96-39.94,0-69.17-10.09-86.85-30.02-18.21-20.53-24.6-51.9-19.01-93.26,5.23-38.79,21.36-85.61,46.89-136.44h0c6.53,14.44,13.67,28.52,21.39,42.22,35.4,62.83,83.03,117.86,139.63,161.87,1.2-.36,2.4-.73,3.6-1.11,11.42-3.58,23.12-7.63,35.1-12.13-23.23-16.46-45.11-34.95-65.53-55.37-38.59-38.59-70.28-82.42-94.52-130.67-4.99-9.9-9.64-19.99-13.99-30.26-1.78-4.22-3.51-8.47-5.17-12.73,0,0,0,0,0,0,31.82-55.78,72.97-114.24,122.59-174.05,11.32-13.69,23.01-27.3,35.01-40.86,4.8-5.44,4.59-13.67-.54-18.81-2.68-2.68-6.19-4.01-9.67-4.01-3.79,0-7.57,1.55-10.29,4.63-60.36,68.1-110.68,135.69-148.99,199.14-15.07-48.43-22.69-98.81-22.69-150.35,0-68.36,13.39-134.66,39.77-197.04,25.5-60.28,62.01-114.43,108.51-160.93,46.52-46.5,100.65-83.01,160.93-108.51,62.4-26.4,128.68-39.77,197.04-39.77s134.66,13.37,197.04,39.77c.71.3,1.42.6,2.12.92h0c-64.88,31.27-134.29,72.54-205.01,122.51-6.66,4.69-7.78,14.1-2.44,20.23l.13.15c4.63,5.31,12.51,6.21,18.26,2.16,56.08-39.58,113.29-75.15,167.7-103.61,18.22-9.52,36.11-18.3,53.61-26.27h0c13.86,7.11,27.34,14.85,40.44,23.21,30.97,19.72,59.78,42.86,86.12,69.21,37.05,37.05,67.74,78.94,91.58,124.93,2.19-3.9,4.33-7.78,6.41-11.64,4.41-8.16,8.57-16.2,12.49-24.11-39.51-68.72-93.71-127.91-158.33-173.33-12.71-8.94-25.82-17.32-39.3-25.16,18.21-7.3,35.9-13.65,53.02-19.02,44.32-13.91,83.66-20.96,116.91-20.96,39.94,0,69.17,10.11,86.83,30.02,18.21,20.53,24.62,51.9,19.03,93.26-5.89,43.69-25.59,97.57-57,155.91-.22.41-.45.82-.67,1.24-6.3,11.64-13.03,23.44-20.17,35.32-30.19,50.34-67.8,102.73-112.14,156.2-57.04,68.81-122.7,136.27-195.13,200.55-23.47,20.83-47.23,40.93-71.17,60.22-.15.13-.32.24-.47.38-5.25,4.22-10.48,8.42-15.75,12.54-3.09,2.46-6.19,4.87-9.28,7.27-.04.04-.09.08-.13.09-8.38,6.53-16.78,12.91-25.19,19.23-1.92,1.44-3.84,2.88-5.76,4.31-8.23,6.14-16.47,12.2-24.71,18.13-.74.53-1.47,1.05-2.21,1.57-7.94,5.69-15.87,11.27-23.81,16.75-1.43.99-2.86,1.99-4.29,2.97-8.25,5.67-16.49,11.22-24.73,16.66-1.57,1.03-3.13,2.05-4.7,3.08-8.07,5.29-16.13,10.49-24.17,15.56-.46.29-.92.59-1.38.88-8.4,5.28-16.79,10.4-25.16,15.43-1.53.92-3.06,1.84-4.59,2.75-8.07,4.81-16.11,9.5-24.13,14.06-1.39.79-2.78,1.57-4.17,2.35-8.38,4.72-16.73,9.36-25.04,13.81-3.64,1.95-7.28,3.88-10.89,5.78-28.69,15-56.53,28.11-83.33,39.21-13.5,5.59-26.72,10.69-39.64,15.24-7.82,2.78-15.53,5.34-23.1,7.73ZM628.63,1030.93c-34.52,18.75-77.96,20.1-113.57,3.52-35.61-16.59-62.66-50.78-70.54-89.27,1.16-.66,2.36-1.38,3.53-2.05,7.46-4.21,14.92-8.45,22.46-12.89,51.66-30.47,105.26-66,158.77-106.95,8.14-6.22,14.21-10.87,17.7-13.55.02,0,.06-.02.08-.06.06-.04.11-.08.17-.11-.02,0-.06.02-.08.04.09-.08.21-.17.37-.3v.02c.21.34.41.68.62,1.01,8.48,13.76,16.8,27.04,23.63,37.46.06.08.09.15.15.23,5.14,7.5,9.47,15.54,12.92,23.96,3.98,9.71,6.79,19.89,8.32,30.28,1.52,10.39,1.78,20.95.68,31.39-.13,1.29-.3,2.61-.49,3.9-5.46,38.91-30.21,74.61-64.73,93.37ZM371.42,1006.48c-8.64-3.66-17.14-7.54-25.52-11.64h0c22.14-9.79,44.9-20.83,68.16-33.08,3.3,12.32,8.04,24.04,14.03,34.97,7.46,13.62,16.89,25.99,27.83,36.84-28.8-6.54-57.04-15.48-84.5-27.09ZM1034.94,737.04c-25.5,60.28-62.01,114.41-108.51,160.93-46.5,46.5-100.65,83.01-160.93,108.51-27.41,11.59-55.61,20.52-84.37,27.06,29.16-28.97,47.23-69.09,47.23-113.44,0-27.75-7.31-55.16-20.96-79.16-3.68-6.45-7.8-12.66-12.36-18.54,0,0-.02-.02-.06-.08-.75-1.11-10.41-15.32-21.9-33.13.15-.13.28-.24.43-.36,24.94-20.03,49.86-41.06,74.64-63.06,128.44-113.94,232.11-234.88,301.16-344.57h0c16.88,50.98,25.39,104.23,25.39,158.79,0,68.34-13.37,134.64-39.77,197.04Z"/>
  </g>
  <g>
    <g>
      <path d="M1331.14,430.44v-126.34h-48.2v-24.65h125.24v24.65h-48.43v126.34h-28.61Z"/>
      <path d="M1427.99,430.44v-159.14h26.85v56.57h1.54c2.5-3.08,5.43-5.8,8.8-8.14s7.23-4.22,11.56-5.61c4.33-1.39,9.13-2.09,14.42-2.09,7.34,0,13.83,1.32,19.48,3.96,5.65,2.64,10.09,6.9,13.31,12.77,3.23,5.87,4.84,13.72,4.84,23.55v78.14h-27.07v-73.3c0-4.11-.48-7.52-1.43-10.24-.96-2.71-2.35-4.91-4.18-6.6-1.84-1.69-4.07-2.89-6.71-3.63-2.64-.73-5.58-1.1-8.8-1.1-4.84,0-9.21,1.18-13.1,3.52-3.89,2.35-6.97,5.58-9.24,9.69-2.28,4.11-3.41,8.88-3.41,14.31v67.35h-26.85Z"/>
      <path d="M1606.28,433.08c-12.32,0-22.6-2.17-30.82-6.49-8.22-4.33-14.38-10.97-18.49-19.92-4.11-8.95-6.16-20.32-6.16-34.12s2.05-25.35,6.16-34.23c4.1-8.88,10.27-15.48,18.49-19.81,8.22-4.33,18.49-6.49,30.82-6.49,11.15,0,20.51,2.09,28.06,6.27s13.24,10.6,17.06,19.26c3.82,8.66,5.72,19.89,5.72,33.68v7.92h-78.8c.29,7.19,1.39,13.25,3.3,18.16,1.9,4.92,4.87,8.58,8.91,11.01s9.35,3.63,15.96,3.63c3.37,0,6.52-.44,9.47-1.32,2.93-.88,5.5-2.24,7.7-4.07,2.2-1.83,3.92-4.15,5.17-6.94,1.25-2.78,1.87-6.01,1.87-9.68h26.41c0,7.34-1.28,13.72-3.85,19.15-2.57,5.43-6.16,9.91-10.78,13.43-4.63,3.52-10.02,6.17-16.18,7.93-6.16,1.76-12.84,2.64-20.03,2.64ZM1578.76,360.22h50.41c0-4.84-.55-8.95-1.65-12.33-1.1-3.37-2.64-6.16-4.62-8.36-1.98-2.2-4.37-3.78-7.15-4.73-2.79-.95-5.95-1.43-9.47-1.43-5.72,0-10.53.96-14.42,2.86-3.89,1.91-6.86,4.84-8.92,8.8-2.06,3.96-3.45,9.03-4.18,15.19Z"/>
      <path d="M1391.76,712.97c-34.88,0-61.73-9.31-80.57-27.93-18.84-18.62-28.26-47.52-28.26-86.71,0-26.05,4.52-47.52,13.56-64.42,9.04-16.9,22.17-29.49,39.4-37.78,17.22-8.28,37.89-12.43,62-12.43,14.42,0,27.99,1.62,40.69,4.84,12.7,3.23,23.95,8.18,33.75,14.86,9.79,6.68,17.44,15.02,22.93,25.03s8.24,21.91,8.24,35.68h-48.76c0-6.67-1.45-12.59-4.36-17.76-2.9-5.17-6.94-9.47-12.11-12.92-5.17-3.44-11.09-6.03-17.76-7.75-6.68-1.72-13.68-2.58-21-2.58-11.2,0-20.99,1.45-29.38,4.36-8.4,2.91-15.34,7.32-20.83,13.24-5.49,5.92-9.64,13.3-12.44,22.12-2.8,8.83-4.2,19.05-4.2,30.68v9.69c0,16.15,2.37,29.39,7.11,39.72,4.73,10.33,11.84,18.03,21.31,23.09,9.47,5.06,21.2,7.59,35.2,7.59,11.62,0,21.9-1.78,30.84-5.33,8.93-3.55,15.93-8.67,20.99-15.34,5.06-6.67,7.59-14.86,7.59-24.54v-2.26h-66.21v-36.81h114v119.81h-31.65l-4.2-23.9c-6.46,6.25-13.4,11.41-20.83,15.5-7.43,4.09-15.66,7.16-24.7,9.2-9.04,2.04-19.17,3.07-30.36,3.07Z"/>
      <path d="M1645.91,712.97c-20.24,0-37.62-3.23-52.15-9.69-14.53-6.46-25.67-16.2-33.43-29.23-7.75-13.02-11.62-29.22-11.62-48.6v-137.89h48.44v136.6c0,15.93,4.2,28.15,12.6,36.65,8.4,8.51,20.45,12.76,36.17,12.76s27.82-4.25,36.33-12.76c8.5-8.5,12.76-20.72,12.76-36.65v-136.6h48.44v137.89c0,19.38-3.88,35.58-11.62,48.6-7.75,13.03-18.89,22.77-33.43,29.23-14.53,6.46-32.02,9.69-52.47,9.69Z"/>
      <path d="M1764.1,709.09l85.25-221.53h59.42l85.25,221.53h-51.99l-15.82-43.6h-96.56l-15.82,43.6h-49.73ZM1843.54,626.75h68.78l-19.7-54.58c-.86-2.37-1.89-5.22-3.06-8.56-1.18-3.34-2.42-7.05-3.72-11.14-1.29-4.09-2.53-8.12-3.72-12.11-1.18-3.98-2.31-7.59-3.39-10.82h-1.94c-1.08,4.09-2.47,8.88-4.19,14.37-1.73,5.49-3.45,10.77-5.17,15.82-1.72,5.06-3.12,9.2-4.19,12.43l-19.7,54.58Z"/>
      <path d="M2020.51,709.09v-221.53h121.42c16.36,0,29.97,2.91,40.85,8.72,10.87,5.81,18.99,13.94,24.38,24.38,5.38,10.44,8.08,22.44,8.08,36.01,0,14.43-3.23,27.18-9.69,38.27-6.46,11.09-15.82,19.54-28.09,25.35l45.21,88.81h-53.28l-39.08-80.73h-61.68v80.73h-48.11ZM2068.62,590.26h66.85c9.69,0,17.22-2.96,22.61-8.88,5.38-5.92,8.07-13.94,8.07-24.06,0-6.46-1.18-12-3.55-16.63-2.37-4.63-5.82-8.13-10.33-10.49-4.52-2.37-10.12-3.55-16.8-3.55h-66.85v63.62Z"/>
      <path d="M2256.24,709.09v-221.53h90.42c23.03,0,42.62,3.98,58.77,11.95,16.15,7.97,28.58,20.08,37.3,36.33,8.72,16.26,13.08,37.09,13.08,62.49s-4.35,45.97-13.08,62.33c-8.72,16.36-21.15,28.53-37.3,36.49-16.15,7.97-35.74,11.95-58.77,11.95h-90.42ZM2304.36,669.37h41.98c9.69,0,18.29-1.4,25.83-4.2,7.53-2.8,13.78-6.94,18.73-12.43,4.95-5.49,8.72-12.38,11.3-20.67,2.58-8.29,3.88-17.92,3.88-28.9v-9.69c0-10.98-1.3-20.61-3.88-28.9-2.59-8.28-6.35-15.18-11.3-20.67-4.96-5.49-11.2-9.69-18.73-12.59-7.54-2.91-16.15-4.36-25.83-4.36h-41.98v142.41Z"/>
      <path d="M2494.89,709.09v-221.53h48.12v221.53h-48.12Z"/>
      <path d="M2569.49,709.09l85.25-221.53h59.42l85.25,221.53h-51.99l-15.82-43.6h-96.56l-15.82,43.6h-49.73ZM2648.93,626.75h68.78l-19.7-54.58c-.86-2.37-1.89-5.22-3.06-8.56-1.18-3.34-2.42-7.05-3.72-11.14-1.29-4.09-2.53-8.12-3.72-12.11-1.18-3.98-2.31-7.59-3.39-10.82h-1.94c-1.08,4.09-2.47,8.88-4.19,14.37-1.73,5.49-3.45,10.77-5.17,15.82-1.72,5.06-3.12,9.2-4.19,12.43l-19.7,54.58Z"/>
      <path d="M2825.9,709.09v-221.53h44.24l89.13,119.48c1.29,1.51,2.9,3.61,4.84,6.3,1.94,2.69,3.77,5.33,5.49,7.91,1.72,2.58,2.9,4.63,3.55,6.14h1.61v-139.83h45.53v221.53h-44.24l-91.07-122.39c-2.15-3.01-4.42-6.35-6.78-10.01-2.37-3.66-4.09-6.46-5.17-8.4h-1.61v140.8h-45.53Z"/>
    </g>
    <g>
      <path d="M1346.09,831.03c3.36,0,6.26-1.17,8.67-3.52,2.42-2.34,3.63-5.16,3.63-8.46s-1.19-6.22-3.57-8.57c-2.38-2.34-5.29-3.51-8.73-3.51s-6.25,1.17-8.62,3.51c-2.39,2.35-3.57,5.2-3.57,8.57s1.19,6.11,3.57,8.46c2.37,2.35,5.25,3.52,8.62,3.52Z"/>
      <path d="M1481.21,937.14c-3.37,0-6.25,1.17-8.62,3.51-2.38,2.34-3.57,5.2-3.57,8.57s1.19,6.11,3.57,8.46c2.37,2.34,5.25,3.51,8.62,3.51s6.26-1.17,8.68-3.51c2.41-2.35,3.62-5.17,3.62-8.46s-1.19-6.22-3.57-8.57-5.29-3.51-8.73-3.51Z"/>
      <path d="M1481.75,815.54h-20.43v83.7h-51.07v-72.72h-20.33v77.11c0,9.6-1.7,17.85-5.11,24.77-3.4,6.92-8.35,12.19-14.83,15.82-6.48,3.62-14.23,5.44-23.23,5.44s-16.88-1.81-23.4-5.44c-6.52-3.63-11.5-8.9-14.94-15.82-3.44-6.92-5.16-15.17-5.16-24.77v-6.48h-20.32v6.48c0,13.11,2.52,24.39,7.58,33.83,5.05,9.45,12.36,16.66,21.92,21.64,9.55,4.98,21,7.47,34.33,7.47,11.79,0,22.12-1.98,30.98-5.93,8.86-3.96,15.98-9.71,21.37-17.25,5.38-7.54,8.8-16.62,10.27-27.24h72.39v-100.62Z"/>
      <path d="M1449.24,937.14c-3.37,0-6.24,1.17-8.62,3.51s-3.57,5.2-3.57,8.57,1.19,6.11,3.57,8.46c2.38,2.34,5.25,3.51,8.62,3.51s6.26-1.17,8.68-3.51c2.41-2.35,3.62-5.17,3.62-8.46s-1.19-6.22-3.57-8.57c-2.38-2.34-5.29-3.51-8.74-3.51Z"/>
      <path d="M1539.32,800.93h-11.1v16.92h11.43c12.81,0,22.32,3.51,28.5,10.54,6.19,7.03,9.28,17.79,9.28,32.3v38.55h-30.87c-8.28,0-15.02-.53-20.21-1.59-5.2-1.06-11.24-3.02-18.13-5.88v16.26c4.98,3.29,10.42,5.47,16.31,6.54,5.9,1.06,12.65,1.59,20.27,1.59h52.95v-57.01c0-19.7-4.8-34.33-14.39-43.88-9.6-9.56-24.27-14.34-44.05-14.34Z"/>
      <path d="M1638.73,915.83c0,11.72-2.62,20.39-7.85,26.03s-13.28,8.46-24.11,8.46h-3.51v16.26h5.16c16.99,0,29.67-4.14,38.06-12.41,8.38-8.27,12.57-20.87,12.57-37.79v-100.84h-20.32v100.29Z"/>
      <path d="M2731.4,937.03c-3.37,0-6.25,1.17-8.62,3.51-2.38,2.34-3.57,5.2-3.57,8.57s1.19,6.11,3.57,8.46c2.37,2.34,5.25,3.51,8.62,3.51s6.26-1.17,8.67-3.51c2.42-2.35,3.63-5.17,3.63-8.46s-1.19-6.22-3.57-8.57c-2.38-2.34-5.29-3.51-8.73-3.51Z"/>
      <path d="M2791.27,886.56c-2.78-4.21-5.71-10.09-8.79-17.63l-11.21-27.68c-4.61-11.2-9.24-19.64-13.9-25.32-4.65-5.67-10.14-9.59-16.48-11.75-6.33-2.16-14.73-3.24-25.21-3.24h-4.5v16.92h4.5c6.3,0,11.46.82,15.49,2.47,4.03,1.65,7.72,4.71,11.09,9.17,3.37,4.47,6.88,11.09,10.54,19.88l11.43,27.35c2.63,6.3,4.9,11.06,6.81,14.28,1.91,3.22,3.85,5.82,5.82,7.8v.44h-80.3s0,0,0,0h-254.85s0,0,0,0h-254.85s0,0,0,0h-254.85s0,0,0,0h-192.12c-10.03,0-17.47-2.56-22.3-7.69-4.83-5.13-7.25-13.44-7.25-24.94v-108.97h-20.32v108.97c0,16.48,3.92,28.85,11.76,37.13,7.83,8.28,19.44,12.41,34.82,12.41h195.42s0,0,0,0h254.85s0,0,0,0h254.85s0,0,0,0h254.85s0,0,0,0h112.6v-16.92c-3.59-.58-6.77-1.79-9.56-3.62-2.78-1.83-5.56-4.85-8.35-9.06Z"/>
      <rect x="2882.77" y="757.65" width="20.32" height="158.51"/>
      <path d="M2962.85,780.06c3.37,0,6.27-1.17,8.68-3.51,2.42-2.34,3.62-5.16,3.62-8.46s-1.19-6.22-3.57-8.57c-2.38-2.34-5.29-3.51-8.74-3.51s-6.24,1.17-8.62,3.51c-2.38,2.35-3.57,5.2-3.57,8.57s1.19,6.12,3.57,8.46c2.38,2.34,5.25,3.51,8.62,3.51Z"/>
      <path d="M3005.91,815.26c-9.59-9.56-24.27-14.34-44.05-14.34h-11.1v16.92h11.43c12.81,0,22.32,3.51,28.5,10.54,6.19,7.03,9.28,17.79,9.28,32.3v38.55h-30.87c-8.28,0-15.02-.53-20.21-1.59-5.2-1.06-11.24-3.02-18.13-5.88v16.26c4.98,3.29,10.42,5.47,16.31,6.54,5.9,1.06,12.65,1.59,20.27,1.59h52.95v-57.01c0-19.7-4.79-34.33-14.39-43.88Z"/>
    </g>
  </g>
</svg>